<?xml version="1.0" standalone="no"?>
<!DOCTYPE svg PUBLIC "-//W3C//DTD SVG 20010904//EN"
 "http://www.w3.org/TR/2001/REC-SVG-20010904/DTD/svg10.dtd">
<svg version="1.0" xmlns="http://www.w3.org/2000/svg"
 width="1280.000000pt" height="1280.000000pt" viewBox="0 0 1280.000000 1280.000000"
 preserveAspectRatio="xMidYMid meet">
<g transform="translate(0.000000,1280.000000) scale(0.100000,-0.100000)"
fill="#000000" stroke="none">
<path d="M6328 12703 c-86 -113 -118 -182 -118 -252 0 -45 7 -67 44 -135 46
-85 68 -156 47 -156 -7 0 -52 38 -100 84 -68 64 -97 85 -127 91 -32 6 -41 3
-56 -15 -42 -51 -28 -160 33 -267 31 -54 47 -69 199 -191 70 -56 90 -78 115
-130 17 -34 32 -61 35 -61 3 0 19 28 35 62 25 50 46 74 115 130 166 133 175
143 209 211 45 92 58 169 38 219 -19 45 -33 51 -84 38 -29 -8 -62 -33 -120
-91 -44 -44 -86 -80 -93 -80 -22 0 -1 70 46 157 54 100 58 157 18 243 -24 51
-152 230 -165 230 -3 0 -35 -39 -71 -87z"/>
<path d="M5583 11966 c-92 -21 -179 -72 -254 -147 -87 -88 -140 -191 -183
-356 -40 -153 -51 -181 -79 -212 -34 -36 -62 -43 -107 -25 -22 9 -40 19 -40
22 0 3 14 21 32 39 28 29 31 36 22 60 -8 24 -16 28 -52 31 -36 3 -47 -1 -72
-27 -91 -90 37 -250 180 -226 60 10 122 56 167 123 23 34 43 67 45 73 2 7 21
-1 48 -20 122 -85 287 -55 322 60 16 54 2 107 -37 146 -36 36 -68 42 -103 17
-32 -22 -27 -52 14 -91 l37 -34 -20 -27 c-38 -52 -129 -31 -165 38 -47 90 3
275 94 343 158 119 399 131 592 29 180 -94 351 -344 364 -529 2 -40 8 -73 12
-73 4 0 10 33 12 73 13 185 184 435 364 529 121 63 270 84 406 57 84 -17 186
-76 230 -134 63 -84 87 -224 50 -294 -21 -38 -73 -71 -113 -71 -23 0 -69 36
-69 54 0 4 16 22 35 40 40 38 43 58 15 86 -74 74 -189 -76 -136 -178 53 -101
197 -120 313 -41 28 20 48 28 51 21 2 -6 21 -38 43 -72 83 -129 222 -165 319
-84 73 62 80 145 16 196 -30 25 -92 24 -106 -1 -16 -32 -12 -49 20 -78 17 -14
30 -30 30 -34 0 -4 -18 -14 -40 -23 -45 -18 -73 -11 -106 25 -34 38 -43 61
-78 203 -19 73 -46 157 -61 187 -136 270 -366 384 -644 318 -122 -29 -300
-142 -400 -255 -39 -43 -129 -172 -145 -207 -5 -9 -7 -9 -12 0 -3 7 -28 48
-56 90 -114 175 -306 322 -481 369 -81 22 -203 26 -274 10z"/>
<path d="M5743 11690 c-100 -61 -137 -244 -74 -367 26 -52 100 -133 161 -178
56 -41 62 -55 25 -55 -33 0 -95 -26 -95 -40 0 -26 43 -91 83 -126 25 -22 93
-68 152 -103 123 -72 179 -120 231 -198 47 -70 74 -149 84 -243 29 -267 40
-314 72 -331 17 -9 25 -7 45 14 26 25 36 75 62 312 23 208 106 324 326 454 59
35 126 80 147 99 45 41 81 103 72 126 -6 15 -61 36 -96 36 -30 0 -20 15 46 67
69 56 123 118 151 173 24 46 31 166 15 225 -16 57 -60 119 -99 140 -44 22
-133 20 -155 -4 -17 -19 -16 -21 32 -56 55 -39 62 -50 62 -101 0 -51 -31 -76
-143 -112 l-99 -32 -25 30 c-19 24 -33 30 -63 30 -101 0 -204 -176 -239 -410
-7 -41 -16 -79 -20 -83 -5 -5 -14 24 -20 65 -28 187 -72 298 -150 379 -42 43
-52 49 -89 49 -40 0 -74 -20 -83 -49 -6 -17 -198 47 -226 75 -23 23 -30 73
-17 108 3 9 28 32 56 51 48 35 49 37 32 56 -24 27 -117 26 -161 -1z"/>
<path d="M5099 11098 c-149 -13 -327 -82 -484 -187 -56 -38 -84 -50 -141 -59
-156 -26 -340 -104 -459 -195 -342 -262 -466 -807 -301 -1322 32 -101 76 -176
121 -211 33 -25 36 -26 60 -10 48 32 46 69 -19 252 -47 132 -70 280 -62 404 7
118 26 192 76 296 63 131 147 203 261 224 47 9 53 8 81 -16 45 -37 70 -29 86
30 11 40 12 57 2 90 -15 52 -54 93 -94 101 -85 17 -86 25 -6 65 100 50 261 78
370 63 l54 -8 96 95 c68 69 114 106 165 132 73 38 153 64 163 53 3 -3 -7 -29
-23 -58 -23 -44 -27 -59 -21 -92 14 -71 131 -164 157 -124 5 8 9 28 9 46 0 84
173 153 309 124 250 -53 453 -232 593 -521 71 -146 98 -180 145 -180 149 0
-26 400 -292 664 -254 252 -542 369 -846 344z"/>
<path d="M7533 11098 c-373 -31 -756 -323 -959 -733 -83 -166 -87 -275 -11
-275 46 0 79 38 123 140 47 109 146 260 226 342 142 147 350 240 500 224 103
-10 198 -73 198 -130 0 -17 4 -37 9 -45 25 -40 144 55 157 126 6 30 2 47 -21
90 -16 29 -26 55 -22 59 10 10 122 -30 186 -68 31 -18 97 -74 146 -123 l90
-90 55 7 c109 16 270 -12 373 -63 77 -39 75 -47 -10 -64 -65 -13 -112 -97 -98
-174 14 -77 36 -88 91 -46 30 23 37 24 83 15 112 -21 200 -97 261 -225 57
-119 74 -199 74 -340 0 -147 -21 -261 -75 -402 -47 -125 -50 -173 -13 -202 15
-12 31 -21 35 -21 5 0 28 19 50 41 117 117 198 487 170 776 -48 495 -300 803
-751 917 -57 14 -111 26 -122 26 -10 0 -51 22 -91 49 -218 147 -429 208 -654
189z"/>
<path d="M3953 10990 c-12 -5 -29 -21 -39 -35 -13 -21 -15 -31 -6 -50 10 -21
18 -25 56 -25 25 0 48 -4 51 -10 11 -18 -26 -78 -57 -91 -42 -17 -102 0 -193
53 -209 123 -307 158 -444 158 -153 0 -260 -46 -371 -159 -115 -117 -172 -248
-188 -437 -9 -100 1 -237 23 -323 9 -35 14 -65 12 -68 -3 -2 -33 3 -68 12 -86
22 -223 32 -323 23 -189 -16 -320 -73 -437 -188 -113 -111 -159 -218 -159
-371 0 -137 35 -235 158 -444 53 -91 70 -151 53 -193 -13 -31 -73 -68 -91 -57
-6 3 -10 26 -10 51 0 38 -4 46 -25 56 -49 22 -103 -42 -91 -108 19 -100 179
-121 265 -35 59 59 77 156 46 257 -20 67 -19 74 11 74 73 0 175 64 209 131 21
40 19 108 -5 147 -43 70 -144 96 -188 49 -46 -49 -13 -104 58 -94 44 6 51 0
52 -43 2 -59 -71 -100 -144 -80 -50 14 -131 104 -157 175 -50 134 1 297 135
431 130 131 309 188 511 164 161 -19 306 -76 378 -148 19 -20 38 -32 42 -29 3
4 -11 24 -31 44 -86 87 -149 282 -149 468 0 94 3 121 26 188 61 177 198 318
356 367 125 39 230 16 326 -72 63 -57 81 -102 65 -159 -14 -51 -40 -71 -87
-67 l-38 3 3 43 c6 74 -50 108 -96 59 -45 -48 -19 -145 50 -187 39 -24 107
-26 147 -5 67 34 131 136 131 209 0 30 7 31 74 11 101 -31 198 -13 257 46 89
89 63 250 -42 264 -18 3 -44 0 -56 -5z"/>
<path d="M8765 10991 c-86 -35 -94 -182 -16 -260 59 -59 156 -77 257 -46 67
20 74 19 74 -11 0 -73 64 -175 131 -209 40 -21 108 -19 147 5 68 41 93 131 51
184 -43 54 -103 20 -97 -56 l3 -43 -38 -3 c-47 -4 -73 16 -87 67 -16 57 2 102
65 159 96 88 201 111 326 72 164 -51 310 -209 365 -395 57 -194 -24 -542 -151
-647 -11 -9 -17 -20 -13 -24 5 -4 24 9 43 29 39 40 149 96 235 120 137 39 283
43 400 10 223 -61 410 -277 410 -474 0 -108 -95 -256 -179 -279 -85 -23 -167
38 -141 104 8 22 13 24 50 19 73 -10 108 53 54 96 -50 39 -126 22 -178 -39
-20 -25 -26 -42 -26 -81 0 -62 17 -96 74 -146 45 -40 101 -63 150 -63 30 0 31
-7 11 -74 -31 -101 -13 -198 46 -257 86 -86 246 -65 265 35 12 66 -42 130 -91
108 -21 -10 -25 -18 -25 -56 0 -51 -8 -60 -43 -47 -37 14 -67 51 -67 83 0 41
32 119 84 202 150 240 177 456 81 645 -52 103 -189 221 -314 270 -160 64 -384
69 -595 15 -27 -6 -29 -5 -23 17 31 114 39 189 34 323 -6 158 -20 223 -75 336
-45 91 -161 214 -239 254 -194 97 -416 70 -651 -81 -72 -47 -158 -82 -198 -83
-34 0 -70 28 -85 67 -13 35 -4 43 47 43 38 0 46 4 56 25 26 57 -58 114 -127
86z"/>
<path d="M1880 10908 c0 -7 7 -62 15 -121 14 -108 46 -199 83 -240 23 -26 76
-51 137 -66 53 -13 145 -59 145 -72 0 -14 -34 -19 -137 -17 -83 1 -107 -3
-134 -18 -51 -30 -57 -48 -34 -91 28 -53 95 -99 177 -124 63 -19 82 -21 167
-13 167 15 301 11 339 -9 19 -10 36 -17 38 -14 2 2 -5 26 -17 52 -23 51 -23
88 -3 342 8 99 -18 197 -69 265 -41 54 -99 88 -124 72 -42 -26 -55 -69 -54
-178 1 -103 -4 -136 -19 -136 -12 0 -59 99 -76 162 -21 78 -51 118 -111 151
-76 41 -323 83 -323 55z"/>
<path d="M10785 10906 c-193 -27 -267 -76 -300 -202 -27 -101 -65 -171 -86
-158 -5 3 -9 58 -9 122 0 99 -3 122 -20 150 -25 41 -42 48 -81 32 -65 -27
-130 -138 -148 -251 -4 -27 -2 -84 5 -135 22 -158 17 -236 -21 -327 -7 -16 -3
-16 46 4 50 19 64 21 174 13 66 -4 161 -8 210 -8 82 -1 96 2 163 33 104 49
165 126 131 167 -28 34 -67 44 -176 44 -59 0 -115 4 -122 9 -24 15 24 48 104
72 98 29 122 39 151 61 53 42 90 153 108 326 8 72 20 68 -129 48z"/>
<path d="M3100 10599 c-43 -17 -90 -70 -90 -101 l0 -29 73 7 c69 6 73 5 100
-21 39 -39 35 -77 -18 -187 -45 -92 -46 -92 -80 -90 -91 8 -126 -74 -90 -213
23 -89 57 -155 126 -250 34 -47 59 -88 56 -92 -4 -3 -45 22 -92 56 -95 69
-161 103 -250 126 -139 36 -221 1 -213 -90 2 -34 2 -35 -90 -80 -110 -53 -148
-57 -187 -17 -26 26 -27 30 -21 100 l7 72 -29 0 c-32 0 -84 -48 -101 -93 -40
-104 45 -265 166 -319 64 -28 152 -37 252 -27 46 5 86 8 88 5 3 -2 -7 -22 -21
-43 -36 -52 -34 -77 7 -94 52 -23 159 -15 291 20 203 54 349 39 482 -47 32
-22 68 -49 79 -62 11 -12 36 -31 55 -41 19 -11 62 -42 95 -70 51 -42 66 -49
95 -47 32 3 35 6 38 38 2 29 -5 44 -47 95 -28 33 -59 76 -70 95 -10 19 -29 44
-41 55 -13 11 -40 47 -62 79 -86 133 -101 279 -47 482 35 132 43 239 20 292
-17 40 -42 42 -94 6 -21 -14 -40 -24 -43 -22 -2 3 0 43 4 89 17 161 -11 264
-93 343 -72 70 -184 103 -255 75z"/>
<path d="M4755 10596 c-16 -7 -39 -23 -49 -35 -14 -15 -31 -21 -64 -21 -37 0
-50 -6 -78 -34 -52 -52 -44 -85 15 -65 27 9 35 8 51 -6 24 -22 25 -37 5 -75
-21 -40 -65 -64 -175 -95 -52 -15 -119 -39 -147 -53 -76 -37 -156 -121 -201
-210 -36 -75 -37 -78 -37 -191 1 -154 21 -209 114 -302 74 -74 131 -101 254
-120 83 -14 93 -19 100 -58 3 -16 13 -36 22 -44 11 -12 14 -26 9 -56 -17 -104
107 -211 181 -157 19 14 18 15 -18 48 -20 19 -37 41 -37 49 0 8 13 37 29 64
31 54 80 99 231 212 52 39 104 80 114 92 15 16 31 21 70 21 28 0 94 7 146 16
132 22 275 23 322 2 35 -16 37 -19 40 -69 2 -29 8 -54 15 -56 6 -2 26 9 43 24
60 53 46 173 -25 219 -14 9 -25 26 -25 38 0 11 -9 36 -21 55 l-20 33 60 89
c33 49 65 106 71 126 44 151 7 295 -106 413 -92 96 -196 140 -335 140 -89 0
-154 -20 -258 -79 -93 -53 -156 -74 -195 -65 -43 9 -56 22 -56 55 0 22 7 32
30 44 39 20 38 40 -1 54 -39 13 -37 13 -74 -3z m565 -167 c0 -29 -17 -57 -43
-71 -34 -18 -147 -47 -147 -37 0 17 85 102 115 115 46 20 75 18 75 -7z m167
-200 c36 -17 45 -28 54 -62 26 -95 -21 -250 -96 -315 -89 -79 -209 -122 -338
-122 l-79 0 -71 -65 c-44 -41 -99 -80 -146 -103 -73 -36 -80 -37 -181 -37 -97
0 -109 2 -158 29 -75 42 -142 116 -142 158 0 47 30 97 79 136 35 26 52 32 91
32 41 0 55 -5 85 -31 64 -57 39 -109 -64 -130 -65 -12 -71 -21 -45 -58 36 -51
120 -64 191 -30 34 16 50 33 70 73 14 28 43 66 64 84 48 41 65 94 49 153 -12
43 -69 114 -101 124 -26 9 -24 22 6 29 13 3 40 20 59 36 22 20 44 30 65 30 17
0 46 6 64 13 l32 14 0 -83 c0 -92 13 -119 76 -162 29 -20 42 -23 90 -17 42 5
64 3 87 -9 62 -32 136 -14 190 48 27 31 32 45 32 86 0 27 -3 51 -8 54 -4 2
-32 -11 -62 -30 -63 -39 -92 -42 -121 -13 -17 17 -20 29 -16 62 14 107 134
159 244 106z m-973 -155 c12 -5 2 -15 -38 -41 -69 -42 -116 -52 -151 -29 -29
19 -26 30 19 57 31 19 134 27 170 13z"/>
<path d="M7968 10598 c-36 -13 -35 -34 2 -53 23 -12 30 -22 30 -46 0 -25 -6
-32 -37 -45 -49 -21 -102 -7 -213 55 -114 64 -168 81 -259 81 -140 0 -243 -44
-336 -141 -74 -77 -115 -165 -122 -262 -8 -100 13 -165 87 -276 l60 -90 -20
-33 c-11 -18 -20 -42 -20 -54 0 -11 -13 -30 -28 -41 -38 -28 -62 -80 -62 -133
0 -35 6 -48 35 -77 19 -19 40 -33 47 -31 8 3 14 26 16 57 3 50 5 53 40 69 47
21 190 20 322 -2 52 -9 118 -16 146 -16 39 0 55 -5 70 -21 10 -12 72 -62 138
-112 139 -105 188 -152 216 -206 27 -54 26 -61 -17 -98 -37 -32 -37 -33 -19
-48 77 -59 201 58 180 170 -3 20 -2 35 3 35 12 0 33 45 33 70 0 21 3 22 122
45 98 18 154 42 208 91 92 83 140 192 140 316 0 136 -44 241 -140 332 -68 65
-125 95 -250 131 -105 29 -150 53 -174 90 -21 32 -20 58 4 80 15 14 25 15 48
7 60 -21 67 25 11 73 -22 18 -42 25 -73 25 -31 0 -48 6 -62 21 -18 21 -74 50
-91 48 -4 0 -20 -5 -35 -11z m-415 -162 c30 -12 117 -99 117 -116 0 -9 -116
21 -147 38 -26 14 -43 42 -43 71 0 25 25 27 73 7z m-74 -204 c50 -25 74 -63
75 -117 1 -35 -4 -50 -18 -61 -30 -22 -57 -17 -116 20 -32 20 -59 31 -64 26
-17 -16 -9 -88 13 -123 24 -39 91 -77 134 -77 15 0 45 7 67 16 28 11 54 14 84
10 58 -9 105 11 142 60 27 34 29 45 29 119 l0 82 32 -14 c18 -7 47 -13 64 -13
21 0 43 -10 65 -30 19 -16 46 -33 59 -36 30 -7 32 -20 6 -29 -32 -10 -89 -81
-101 -127 -17 -59 1 -111 52 -157 22 -20 49 -56 61 -80 44 -94 172 -121 246
-52 45 42 40 58 -16 67 -115 16 -147 72 -76 134 33 29 41 32 89 28 86 -7 164
-86 164 -167 0 -39 -71 -117 -142 -156 -49 -28 -60 -30 -159 -30 -102 0 -107
1 -183 38 -49 25 -102 62 -146 103 l-67 64 -80 0 c-244 0 -424 140 -440 343
-8 92 8 134 61 158 52 23 121 24 165 1z m970 -166 c15 -8 33 -21 40 -30 19
-23 -29 -50 -74 -43 -46 8 -148 69 -132 79 21 13 136 9 166 -6z"/>
<path d="M9557 10596 c-157 -56 -229 -200 -207 -414 5 -47 7 -88 5 -90 -2 -2
-21 8 -42 22 -52 36 -77 34 -94 -6 -23 -53 -15 -160 20 -292 54 -203 39 -348
-47 -482 -21 -32 -47 -66 -57 -74 -10 -8 -29 -33 -43 -55 -14 -22 -47 -66 -74
-99 -42 -50 -49 -64 -46 -95 3 -33 6 -36 38 -39 29 -2 44 5 95 47 33 28 76 59
95 70 19 10 44 29 55 41 11 13 47 40 79 62 133 86 279 101 482 47 132 -35 239
-43 292 -20 40 17 42 42 6 94 -14 21 -24 41 -21 43 2 3 42 0 88 -5 155 -16
263 12 337 89 69 70 102 159 88 235 -9 48 -74 115 -110 115 l-28 0 7 -64 c5
-44 3 -71 -6 -87 -33 -63 -78 -63 -201 -4 -92 45 -92 46 -90 80 8 91 -74 126
-213 90 -89 -23 -155 -57 -250 -126 -121 -87 -121 -79 -5 81 83 115 131 300
96 368 -20 39 -47 54 -91 50 -34 -2 -35 -1 -80 89 -54 110 -58 152 -17 190 25
24 31 25 100 19 72 -7 72 -7 72 18 0 13 -11 38 -25 54 -49 58 -127 76 -208 48z"/>
<path d="M5983 10158 c-11 -13 -28 -38 -37 -56 -16 -31 -16 -37 -1 -82 99
-297 811 -297 910 0 18 54 15 65 -32 128 -17 23 -32 32 -52 32 -33 0 -54 -20
-76 -77 -9 -23 -27 -49 -41 -57 -93 -62 -415 -62 -508 0 -14 8 -32 34 -41 57
-9 23 -24 50 -32 60 -22 24 -65 21 -90 -5z"/>
<path d="M6036 9759 c-36 -28 -49 -57 -80 -171 -31 -120 -45 -142 -102 -164
-24 -9 -44 -20 -44 -23 0 -4 13 -20 30 -36 24 -23 41 -29 87 -33 116 -8 236
69 263 167 6 22 20 45 30 51 18 10 20 7 20 -28 0 -21 -7 -63 -16 -92 -28 -96
-17 -151 55 -278 35 -61 77 -123 92 -138 l29 -28 26 25 c28 26 122 180 148
243 20 48 20 116 1 180 -19 64 -20 127 -1 120 7 -3 18 -15 23 -27 52 -118 82
-150 172 -182 51 -18 123 -20 154 -4 26 14 67 50 67 59 0 4 -20 15 -44 24 -57
22 -71 44 -102 164 -31 114 -44 143 -80 171 -34 27 -83 27 -176 1 -53 -15
-103 -20 -188 -20 -85 0 -135 5 -188 20 -93 26 -142 26 -176 -1z"/>
<path d="M3986 9334 c-20 -19 -20 -61 -1 -94 20 -36 18 -94 -5 -140 -44 -87
-197 -237 -287 -284 -39 -20 -99 -20 -133 -1 -14 8 -37 14 -52 15 -54 0 -71
-49 -46 -131 9 -31 20 -43 57 -61 159 -78 423 52 577 284 89 133 113 264 66
359 -18 37 -30 48 -61 57 -53 16 -97 15 -115 -4z"/>
<path d="M8694 9338 c-50 -16 -79 -77 -79 -163 1 -88 23 -154 84 -247 157
-239 420 -370 582 -290 37 18 48 30 57 61 32 104 -17 162 -98 116 -72 -41
-167 0 -296 129 -129 129 -170 224 -129 296 46 81 -17 132 -121 98z"/>
<path d="M2838 9149 c-285 -33 -546 -169 -695 -364 -91 -119 -169 -303 -195
-459 -9 -57 -21 -85 -59 -141 -89 -132 -156 -288 -180 -418 -19 -107 -13 -260
15 -370 81 -318 345 -632 677 -806 188 -99 309 -109 309 -27 0 44 -41 81 -135
120 -297 125 -514 360 -565 611 -30 145 36 315 123 315 18 0 38 4 46 9 40 26
-53 143 -124 157 -33 6 -48 2 -92 -21 -29 -16 -55 -26 -58 -23 -11 10 15 90
53 163 26 51 62 96 132 165 l95 95 -8 50 c-16 104 12 275 63 375 40 80 48 79
65 -7 8 -42 63 -89 112 -97 49 -8 127 14 131 37 2 10 -8 34 -23 53 -25 33 -26
38 -16 85 25 115 96 197 225 259 223 107 474 105 758 -6 106 -41 149 -43 183
-9 14 13 25 29 25 35 0 22 -85 93 -145 121 -77 36 -259 83 -380 98 -103 12
-225 12 -337 0z"/>
<path d="M9650 9153 c-227 -24 -452 -102 -520 -180 -36 -40 -36 -43 -9 -77 29
-37 74 -34 200 13 151 57 250 75 404 75 150 0 217 -15 340 -74 129 -62 207
-153 224 -260 7 -43 5 -53 -21 -91 -34 -51 -28 -62 42 -79 38 -9 58 -9 87 0
39 13 93 56 93 74 0 25 22 86 30 86 12 0 47 -68 71 -138 25 -73 39 -202 31
-282 l-7 -65 90 -90 c50 -49 105 -115 123 -146 38 -64 78 -176 68 -186 -4 -4
-30 6 -59 22 -71 38 -114 30 -173 -29 -70 -70 -69 -115 2 -116 38 0 75 -37
106 -105 29 -65 31 -185 4 -265 -23 -69 -76 -174 -110 -220 -93 -123 -242
-240 -406 -317 -135 -64 -170 -93 -170 -140 0 -101 198 -55 435 103 264 175
470 442 547 710 20 67 23 102 23 234 0 132 -3 167 -23 235 -30 103 -99 248
-158 333 -39 55 -50 82 -65 155 -72 354 -241 581 -535 719 -177 83 -449 124
-664 101z"/>
<path d="M4250 9022 c-25 -12 -49 -41 -85 -99 -64 -107 -182 -224 -288 -288
-137 -84 -144 -130 -45 -292 56 -92 68 -144 44 -191 -23 -45 -20 -52 19 -52
67 0 128 49 165 132 34 78 36 125 6 196 -18 41 -24 68 -18 78 7 13 13 10 36
-18 15 -18 45 -60 66 -94 28 -44 52 -68 87 -86 59 -32 230 -78 289 -78 l44 0
0 44 c0 60 -46 230 -78 290 -20 37 -42 59 -87 87 -33 21 -75 50 -93 65 -28 23
-31 29 -18 36 10 6 37 0 78 -18 71 -30 118 -28 196 6 83 37 132 98 132 165 0
39 -7 42 -52 19 -47 -24 -96 -13 -190 44 -68 41 -140 72 -168 72 -3 0 -21 -8
-40 -18z"/>
<path d="M8455 9026 c-22 -7 -75 -34 -118 -60 -89 -55 -139 -66 -185 -42 -50
26 -55 22 -50 -35 4 -41 12 -57 43 -89 42 -43 112 -77 177 -86 34 -5 58 0 106
20 41 18 68 24 78 18 13 -7 10 -13 -18 -36 -18 -15 -61 -45 -95 -66 -74 -46
-98 -88 -137 -230 -24 -91 -31 -134 -28 -172 3 -26 70 -23 189 8 163 43 196
68 278 210 9 17 26 36 36 42 17 11 19 9 19 -17 0 -16 -9 -48 -20 -72 -11 -24
-20 -58 -20 -75 0 -59 32 -135 80 -187 41 -45 51 -50 98 -55 58 -5 62 0 36 50
-24 47 -13 95 45 196 97 168 91 203 -49 288 -110 67 -232 189 -286 286 -59
104 -101 129 -179 104z"/>
<path d="M2855 8713 c-74 -27 -134 -65 -191 -122 -58 -58 -93 -124 -124 -236
-31 -110 -58 -164 -94 -186 -39 -24 -58 -24 -81 1 -14 15 -15 25 -7 48 21 60
-25 67 -73 11 -18 -22 -25 -42 -25 -71 0 -31 -7 -49 -30 -74 -37 -43 -46 -76
-30 -114 16 -38 35 -38 55 0 12 23 22 30 44 30 33 0 46 -13 55 -56 9 -39 -12
-100 -68 -201 -66 -118 -79 -168 -74 -281 3 -83 8 -107 35 -165 79 -167 259
-280 422 -264 88 9 125 24 220 88 l89 60 33 -20 c19 -12 44 -21 55 -21 12 0
29 -11 38 -25 46 -71 166 -85 219 -25 15 17 26 37 24 43 -2 7 -27 13 -56 15
-50 3 -53 5 -69 40 -21 48 -20 192 2 322 9 52 16 118 16 146 0 39 5 55 21 70
12 10 53 62 92 114 39 52 91 119 116 148 43 52 130 112 161 112 8 0 30 -17 47
-37 32 -37 33 -37 48 -19 21 28 19 75 -7 112 -33 48 -74 68 -138 68 -33 0 -61
5 -69 14 -7 7 -26 16 -42 19 -40 8 -44 16 -62 117 -21 117 -54 182 -127 249
-80 75 -145 99 -275 104 -78 3 -111 -1 -150 -14z m-48 -295 c-3 -20 -21 -62
-40 -93 -40 -64 -47 -58 -47 36 0 60 9 88 39 122 15 18 16 18 34 -5 14 -16 18
-33 14 -60z m360 8 c27 -24 62 -68 78 -98 28 -49 30 -60 30 -158 0 -101 -1
-108 -37 -181 -23 -47 -62 -102 -103 -146 l-65 -71 0 -79 c0 -129 -43 -249
-122 -338 -65 -75 -220 -122 -316 -96 -37 10 -46 19 -63 54 -50 112 2 230 108
244 33 4 45 1 62 -16 29 -29 26 -58 -13 -121 -19 -30 -32 -58 -30 -62 3 -5 28
-8 56 -8 46 0 54 4 93 43 54 53 65 99 42 171 -9 28 -16 76 -14 108 2 61 -13
92 -67 132 -23 17 -42 21 -110 21 l-83 0 14 32 c7 18 13 46 13 63 0 19 13 47
35 76 19 25 35 52 35 60 0 21 18 17 25 -5 10 -32 81 -89 124 -101 59 -16 112
1 153 49 18 21 56 50 84 64 83 42 116 133 78 213 -17 35 -49 64 -70 64 -6 0
-17 -27 -23 -61 -21 -103 -73 -128 -130 -64 -26 30 -31 44 -31 85 0 39 6 56
33 91 37 49 88 79 133 79 23 0 45 -12 81 -44z m-697 -820 c-28 -100 -49 -126
-99 -126 -25 0 -27 25 -7 73 13 31 97 117 114 117 5 0 1 -29 -8 -64z"/>
<path d="M9668 8711 c-75 -24 -116 -51 -171 -110 -61 -65 -83 -112 -103 -217
-21 -114 -20 -114 -41 -120 -10 -3 -36 -13 -58 -24 -25 -12 -52 -17 -72 -13
-44 7 -117 -29 -143 -71 -23 -39 -26 -84 -6 -111 14 -19 15 -18 48 18 40 43
45 44 99 17 54 -28 101 -77 206 -216 50 -66 100 -128 112 -138 16 -15 21 -31
21 -73 0 -29 7 -97 16 -151 22 -131 22 -266 1 -314 -16 -35 -20 -37 -69 -40
-28 -2 -53 -8 -55 -15 -2 -6 9 -26 24 -43 53 -60 173 -46 219 25 9 14 26 25
38 25 11 0 36 9 54 20 l33 20 90 -59 c49 -33 106 -65 126 -71 149 -44 294 -7
411 103 95 91 142 200 142 333 0 90 -21 158 -83 269 -54 98 -71 147 -63 187 8
43 24 58 57 58 22 0 32 -7 44 -30 20 -40 41 -38 55 4 13 40 -3 88 -39 120 -15
14 -21 31 -21 64 0 37 -6 50 -34 78 -52 52 -83 44 -66 -17 13 -44 -14 -75 -56
-65 -49 13 -81 60 -114 169 -16 56 -44 130 -61 164 -40 80 -128 164 -216 206
-60 28 -80 32 -168 34 -76 2 -113 -1 -157 -16z m399 -268 c14 -35 18 -140 5
-160 -12 -19 -82 106 -82 147 0 43 27 75 48 57 8 -6 21 -26 29 -44z m-287 7
c21 -11 51 -36 67 -57 23 -30 28 -46 28 -94 0 -50 -4 -62 -29 -88 -60 -63
-115 -29 -131 82 -4 26 -13 47 -19 47 -22 0 -58 -33 -72 -66 -34 -80 -2 -169
73 -207 26 -14 64 -43 84 -65 46 -51 98 -69 157 -52 46 12 117 69 127 101 9
26 22 24 29 -6 3 -13 20 -40 36 -59 20 -22 30 -44 30 -65 0 -17 6 -46 13 -64
l14 -32 -83 0 c-92 0 -119 -13 -162 -76 -20 -29 -23 -42 -18 -87 4 -36 1 -63
-9 -88 -31 -75 -6 -161 61 -204 29 -20 118 -28 128 -12 2 4 -11 32 -30 62 -39
63 -42 92 -13 121 17 17 29 20 61 16 77 -10 116 -54 125 -140 5 -44 1 -64 -17
-101 -18 -39 -28 -47 -63 -57 -56 -15 -148 -4 -212 25 -140 64 -225 218 -225
409 l0 80 -64 67 c-184 196 -198 432 -35 585 55 52 87 57 149 25z m595 -822
c47 -42 75 -89 75 -128 0 -37 -68 -21 -92 23 -17 31 -47 147 -38 147 4 0 29
-19 55 -42z"/>
<path d="M1449 7950 c-26 -25 -30 -36 -27 -72 3 -36 7 -44 31 -52 24 -9 31 -6
60 22 18 18 36 32 39 32 3 0 13 -18 22 -40 18 -45 11 -73 -25 -106 -36 -33
-53 -39 -202 -77 -175 -46 -275 -97 -367 -187 -238 -235 -203 -600 84 -885 60
-59 189 -157 238 -179 10 -5 10 -7 1 -12 -35 -16 -164 -106 -207 -145 -113
-100 -226 -278 -255 -400 -66 -278 48 -508 317 -643 30 -15 114 -42 187 -61
142 -35 166 -45 204 -79 36 -33 43 -61 25 -106 -9 -22 -19 -40 -23 -40 -4 0
-20 14 -34 30 -15 16 -34 30 -43 30 -75 0 -73 -110 3 -149 96 -49 219 75 198
199 -10 62 -58 126 -125 169 -34 22 -66 41 -72 43 -7 3 1 23 21 51 79 116 60
260 -41 313 -102 53 -252 -62 -178 -136 28 -28 48 -25 86 15 39 41 44 42 72
12 27 -29 28 -70 2 -112 -39 -63 -119 -80 -234 -50 -154 40 -244 174 -253 380
-6 123 12 208 65 309 93 179 345 352 529 364 85 5 99 22 19 22 -177 0 -454
185 -549 366 -141 271 -56 614 169 684 80 24 154 26 201 3 73 -34 95 -126 41
-166 l-27 -20 -34 37 c-39 41 -69 46 -91 14 -25 -35 -19 -67 17 -103 39 -39
92 -53 146 -37 115 35 145 200 60 322 -17 24 -28 45 -23 47 5 2 38 22 73 45
70 45 116 106 126 168 24 143 -136 271 -226 180z"/>
<path d="M11209 7957 c-131 -88 -112 -258 41 -356 34 -22 66 -41 72 -43 7 -3
1 -18 -15 -39 -87 -115 -71 -270 35 -325 102 -53 252 62 178 136 -29 29 -48
25 -87 -16 l-34 -37 -27 20 c-54 40 -29 138 43 169 45 19 118 18 185 -2 151
-45 238 -178 247 -379 10 -210 -64 -371 -233 -505 -135 -107 -275 -170 -381
-170 -79 0 -64 -17 20 -22 185 -13 435 -184 529 -364 103 -196 89 -440 -34
-596 -65 -83 -246 -133 -332 -93 -71 34 -99 120 -53 163 13 12 27 22 31 22 4
0 22 -16 40 -35 38 -40 58 -43 86 -15 75 75 -76 189 -179 135 -100 -51 -119
-205 -40 -315 17 -23 29 -43 27 -44 -2 -1 -24 -14 -50 -29 -73 -42 -109 -77
-134 -132 -28 -58 -30 -101 -9 -153 38 -90 119 -133 190 -100 49 22 72 100 39
132 -24 24 -51 19 -81 -14 -14 -17 -30 -30 -34 -30 -15 0 -39 79 -30 102 22
57 75 84 237 124 60 14 141 41 179 59 413 190 459 651 101 1011 -63 63 -214
174 -237 174 -20 0 -7 17 24 32 110 52 280 216 356 342 148 247 125 525 -59
705 -93 92 -193 143 -364 186 -144 36 -167 45 -205 79 -36 33 -43 61 -25 106
9 22 19 40 23 40 4 0 20 -13 34 -30 15 -16 36 -30 46 -30 44 0 65 55 40 103
-30 59 -101 74 -160 34z"/>
<path d="M1282 7158 c-84 -12 -148 -52 -178 -110 -21 -41 -18 -131 5 -152 19
-17 21 -16 56 32 19 28 42 53 51 56 35 13 85 6 108 -17 28 -28 92 -220 75
-226 -54 -18 -66 -99 -22 -152 67 -80 199 -139 362 -163 138 -21 138 -31 0
-52 -163 -24 -295 -83 -362 -163 -39 -46 -38 -100 3 -134 l30 -25 -32 -99
c-36 -112 -61 -143 -112 -143 -51 0 -62 7 -101 62 -35 48 -37 49 -56 32 -24
-21 -26 -111 -4 -154 53 -102 246 -145 370 -83 50 26 114 82 168 149 52 66 67
76 67 47 0 -36 21 -91 36 -97 23 -9 85 27 126 72 19 21 64 88 99 147 130 220
246 303 454 326 133 15 279 36 298 44 27 11 40 41 27 64 -16 31 -65 42 -330
71 -94 10 -173 37 -244 85 -75 50 -126 110 -200 234 -73 125 -130 191 -186
216 -41 19 -43 19 -56 1 -7 -10 -16 -38 -20 -62 -3 -24 -10 -44 -14 -44 -5 0
-25 22 -45 50 -45 61 -127 135 -179 162 -50 26 -126 36 -194 26z"/>
<path d="M11403 7160 c-88 -18 -184 -89 -259 -192 -20 -26 -39 -48 -44 -48 -4
0 -11 20 -14 44 -4 24 -15 51 -26 61 -17 15 -20 15 -52 0 -59 -30 -108 -87
-181 -210 -128 -217 -247 -303 -447 -325 -268 -30 -314 -40 -330 -71 -13 -23
0 -53 27 -64 19 -8 165 -29 298 -44 146 -16 261 -73 347 -170 22 -25 71 -98
108 -161 70 -118 120 -175 178 -205 32 -15 35 -15 52 0 11 10 22 37 26 61 3
24 10 44 14 44 5 0 24 -22 44 -48 72 -99 165 -170 245 -187 121 -26 263 23
306 105 22 43 20 133 -4 154 -19 17 -21 16 -56 -32 -39 -55 -50 -62 -101 -62
-52 0 -77 32 -113 144 l-31 97 31 26 c28 24 31 31 26 70 -6 53 -29 81 -112
135 -64 42 -177 79 -295 97 -41 7 -79 16 -83 20 -5 5 24 14 65 20 184 29 293
71 375 145 38 34 46 48 50 87 5 41 3 48 -26 72 l-31 26 31 97 c38 116 61 144
119 144 43 0 61 -13 106 -75 18 -25 25 -28 40 -19 26 15 31 111 9 153 -40 79
-182 133 -292 111z"/>
<path d="M3376 6946 c-22 -57 -44 -71 -164 -102 -114 -31 -143 -44 -171 -80
-27 -34 -27 -83 -1 -176 15 -53 20 -103 20 -188 0 -85 -5 -135 -20 -188 -26
-93 -26 -142 1 -176 28 -36 57 -49 171 -80 120 -31 142 -45 164 -102 9 -24 20
-44 24 -44 9 0 45 41 59 67 31 60 -3 194 -65 256 -20 19 -60 45 -89 57 -68 28
-80 50 -26 50 21 0 60 -7 87 -15 64 -19 132 -19 180 1 63 26 217 120 243 148
l24 26 -24 26 c-26 28 -161 112 -230 144 -53 23 -125 25 -193 5 -27 -8 -67
-15 -88 -15 -35 0 -38 2 -28 20 6 10 29 24 51 30 98 27 175 147 167 263 -4 46
-10 63 -33 87 -16 17 -32 30 -36 30 -3 0 -14 -20 -23 -44z"/>
<path d="M9370 6970 c-87 -87 -24 -302 102 -349 59 -23 78 -34 78 -48 0 -18
-54 -17 -116 2 -63 19 -135 19 -182 0 -62 -26 -237 -135 -251 -157 -11 -18 -9
-24 14 -48 14 -15 76 -56 137 -91 127 -72 182 -83 278 -55 66 20 123 21 118 4
-3 -7 -33 -27 -68 -45 -72 -36 -90 -55 -126 -128 -41 -85 -26 -207 28 -236 23
-13 20 -15 45 42 24 54 65 77 183 103 133 29 176 70 167 159 -3 28 -13 77 -21
107 -24 81 -21 266 4 361 25 96 25 140 -1 173 -28 36 -57 49 -171 80 -120 31
-142 45 -164 102 -19 50 -25 53 -54 24z"/>
<path d="M2695 6853 c-49 -25 -75 -55 -75 -83 0 -32 21 -53 77 -75 50 -20 68
-45 88 -122 17 -66 20 -244 5 -322 -17 -89 -37 -121 -95 -146 -62 -28 -77 -45
-73 -82 4 -38 90 -97 128 -88 78 20 145 75 184 153 140 281 59 695 -151 766
-55 19 -51 19 -88 -1z"/>
<path d="M10012 6853 c-128 -45 -215 -228 -215 -453 0 -230 89 -410 223 -455
54 -18 65 -15 128 32 23 17 32 32 32 52 0 33 -19 52 -81 78 -78 34 -104 122
-97 327 6 176 23 221 94 256 73 36 86 48 82 84 -2 24 -13 38 -52 64 -54 36
-55 36 -114 15z"/>
<path d="M504 6796 c-41 -18 -46 -28 -38 -72 5 -27 28 -59 90 -125 46 -48 84
-93 84 -100 0 -21 -72 1 -158 48 -78 42 -87 45 -145 41 -39 -2 -79 -12 -107
-27 -47 -24 -220 -150 -220 -160 0 -13 179 -141 230 -165 85 -40 139 -36 242
18 90 48 158 67 158 46 0 -7 -36 -49 -80 -93 -112 -112 -128 -172 -55 -202 47
-20 79 -19 155 8 99 36 144 69 217 165 91 118 150 175 206 198 26 10 47 21 47
24 0 3 -27 18 -61 33 -61 29 -62 30 -211 217 -54 67 -123 114 -207 140 -74 23
-104 24 -147 6z"/>
<path d="M12145 6790 c-81 -26 -150 -74 -203 -140 -149 -187 -150 -188 -211
-217 -34 -15 -61 -30 -60 -33 0 -3 28 -19 62 -35 55 -27 74 -45 162 -154 110
-137 152 -169 258 -202 74 -23 122 -21 164 6 22 15 24 21 18 53 -8 44 -36 83
-116 161 -32 31 -59 63 -59 70 0 23 68 3 157 -45 100 -54 157 -58 243 -18 51
24 230 152 230 165 0 10 -173 136 -220 160 -28 15 -68 25 -107 27 -58 4 -67 1
-145 -41 -86 -47 -158 -69 -158 -48 0 7 38 52 84 100 62 66 85 98 90 125 8 44
3 54 -40 72 -44 18 -76 17 -149 -6z"/>
<path d="M2550 6276 c-25 -7 -88 -35 -139 -61 -342 -177 -604 -487 -687 -813
-28 -109 -34 -263 -15 -369 24 -129 90 -283 181 -418 37 -56 49 -84 58 -141
25 -154 102 -335 193 -457 197 -262 588 -407 992 -369 140 13 325 57 420 101
59 26 147 98 147 120 0 4 -9 20 -21 35 -29 37 -77 34 -202 -13 -141 -54 -255
-75 -402 -75 -141 0 -221 17 -340 74 -128 61 -201 146 -226 259 -10 47 -9 53
15 84 33 43 33 65 -1 78 -100 38 -201 -1 -218 -84 -17 -86 -25 -87 -65 -7 -51
100 -79 272 -62 375 l8 50 -91 90 c-53 52 -106 117 -128 155 -39 67 -74 167
-63 178 4 3 30 -7 59 -23 43 -23 60 -27 90 -21 71 13 166 132 126 157 -8 5
-28 9 -45 9 -58 0 -121 98 -130 203 -24 262 218 570 568 722 101 43 138 76
138 122 0 53 -58 67 -160 39z"/>
<path d="M10108 6279 c-12 -6 -18 -22 -18 -43 0 -45 38 -78 140 -122 151 -65
310 -180 403 -292 52 -63 115 -177 143 -262 27 -81 25 -200 -4 -265 -31 -68
-68 -105 -106 -105 -71 -1 -72 -46 -2 -116 58 -59 99 -65 171 -28 30 15 58 24
62 21 10 -10 -32 -123 -69 -185 -32 -54 -151 -185 -194 -213 -19 -13 -20 -19
-13 -84 10 -84 -4 -212 -31 -289 -22 -64 -60 -136 -71 -136 -8 0 -29 63 -29
86 0 21 -56 63 -101 75 -37 10 -53 9 -90 -2 -53 -17 -60 -40 -26 -86 21 -29
23 -39 16 -84 -22 -140 -165 -260 -374 -315 -158 -41 -408 -16 -602 60 -114
44 -163 47 -192 10 -12 -15 -21 -31 -21 -35 0 -21 87 -93 143 -120 34 -15 116
-42 181 -59 492 -126 985 3 1230 323 94 123 168 296 197 464 10 54 23 85 66
149 67 102 125 226 155 329 20 68 23 103 23 235 0 132 -4 167 -23 235 -89 310
-352 615 -676 786 -135 71 -241 96 -288 68z"/>
<path d="M2546 5760 c-117 -30 -243 -138 -299 -257 -27 -58 -32 -82 -35 -165
-5 -113 8 -161 75 -283 65 -117 79 -166 61 -213 -11 -31 -19 -38 -45 -40 -27
-3 -34 2 -48 27 -20 39 -39 39 -55 2 -15 -37 0 -88 35 -121 19 -18 25 -34 25
-66 0 -31 7 -51 25 -73 48 -56 94 -49 73 11 -8 23 -7 33 7 48 23 25 42 25 81
1 36 -22 63 -76 94 -186 12 -44 34 -103 47 -132 37 -74 124 -157 212 -201 65
-32 84 -37 166 -40 151 -7 251 32 344 134 58 63 84 126 102 243 7 46 18 84 23
86 6 2 23 6 38 9 15 3 34 13 42 22 11 11 25 14 45 9 105 -23 224 106 166 181
-15 18 -16 18 -48 -19 -37 -43 -44 -44 -98 -16 -56 28 -109 84 -211 219 -47
63 -95 124 -107 134 -16 15 -21 31 -21 70 0 28 -7 94 -16 146 -22 130 -23 274
-2 322 16 35 19 37 69 40 29 2 54 8 56 14 7 21 -47 73 -83 80 -57 11 -102 -4
-145 -47 -21 -21 -47 -39 -56 -39 -10 0 -33 -9 -52 -21 l-34 -21 -74 52 c-40
28 -94 60 -119 72 -54 23 -178 33 -238 18z m310 -250 c132 -65 214 -219 214
-403 l0 -79 65 -71 c41 -44 80 -99 103 -146 36 -73 37 -80 37 -181 0 -98 -2
-109 -30 -158 -39 -71 -117 -142 -156 -142 -45 0 -106 36 -139 82 -43 59 -42
123 1 173 57 64 109 39 130 -64 6 -34 17 -61 23 -61 21 0 53 29 70 64 21 45
20 91 -3 143 -15 33 -31 48 -73 69 -29 15 -68 44 -86 65 -42 49 -92 65 -150
49 -46 -12 -117 -69 -127 -101 -9 -26 -22 -24 -29 6 -3 13 -20 40 -36 59 -20
22 -30 44 -30 65 0 17 -6 46 -13 64 l-14 32 82 0 c74 0 85 2 119 29 48 36 70
85 61 139 -5 27 -2 56 10 92 25 73 15 118 -40 172 -41 42 -62 49 -120 43 -35
-3 -35 -14 1 -70 37 -59 42 -86 20 -116 -20 -27 -95 -26 -133 2 -60 44 -79
133 -46 215 22 56 56 71 152 65 56 -4 89 -12 137 -36z m-446 -200 c11 -6 25
-20 31 -31 18 -34 47 -149 37 -149 -4 0 -29 19 -55 43 -90 82 -99 183 -13 137z
m397 -924 c7 -46 -20 -94 -43 -75 -29 24 -44 68 -44 128 0 94 7 100 47 37 19
-31 37 -71 40 -90z"/>
<path d="M10067 5759 c-49 -12 -87 -31 -173 -91 l-72 -49 -33 20 c-19 12 -44
21 -55 21 -12 0 -29 11 -38 25 -21 31 -86 65 -127 65 -44 0 -94 -26 -108 -56
-16 -36 -7 -44 50 -44 48 0 51 -1 66 -37 21 -49 21 -183 -1 -315 -9 -54 -16
-122 -16 -151 0 -42 -5 -58 -21 -73 -12 -10 -62 -72 -112 -138 -101 -134 -154
-189 -209 -217 -51 -26 -58 -25 -95 18 -32 37 -33 37 -48 19 -34 -44 -6 -124
57 -161 22 -13 51 -19 88 -19 30 0 58 -4 61 -9 3 -4 23 -14 45 -22 21 -7 42
-19 46 -27 3 -7 14 -53 23 -102 19 -104 41 -152 102 -217 90 -96 192 -134 339
-127 117 6 198 42 284 124 69 66 108 137 150 281 33 109 65 156 114 169 42 10
69 -21 56 -65 -16 -58 10 -69 61 -23 24 22 32 38 36 77 4 33 13 59 29 75 35
39 47 77 34 116 -14 42 -35 43 -55 4 -12 -23 -22 -30 -44 -30 -39 0 -56 24
-56 79 0 37 13 73 69 183 65 129 69 141 74 218 8 145 -29 251 -124 350 -108
114 -257 162 -397 129z m105 -219 c52 -15 83 -79 75 -158 -3 -31 -14 -67 -25
-81 -57 -78 -182 -75 -182 4 0 11 15 45 34 75 20 31 31 59 26 64 -15 15 -90 8
-123 -13 -66 -41 -95 -136 -62 -202 12 -22 14 -45 10 -87 -6 -49 -4 -61 17
-91 43 -63 70 -76 162 -76 l83 0 -14 -32 c-7 -18 -13 -47 -13 -64 0 -21 -10
-43 -30 -65 -16 -19 -33 -46 -36 -59 -7 -30 -20 -32 -29 -6 -10 32 -81 89
-127 101 -59 17 -111 -1 -157 -52 -20 -22 -56 -49 -80 -61 -94 -44 -121 -178
-51 -249 41 -41 56 -37 65 19 16 111 71 145 131 82 25 -26 29 -38 29 -88 0
-48 -5 -64 -28 -94 -32 -43 -93 -77 -135 -77 -37 0 -112 64 -149 128 -87 147
-46 343 103 502 l64 67 0 80 c0 172 72 322 187 390 84 49 176 65 255 43z m278
-240 c0 -39 -28 -86 -75 -128 -26 -23 -51 -42 -55 -42 -9 0 21 116 38 147 24
44 92 61 92 23z m-370 -853 c0 -61 -16 -113 -43 -135 -13 -11 -18 -9 -31 10
-25 35 -19 76 21 144 42 73 53 69 53 -19z"/>
<path d="M3860 4690 c0 -6 7 -25 16 -42 24 -47 13 -96 -44 -190 -105 -174 -95
-212 78 -311 69 -39 205 -183 258 -273 79 -133 118 -139 284 -43 101 58 149
69 196 45 50 -26 55 -22 50 35 -4 41 -12 57 -43 89 -77 79 -187 108 -270 71
-26 -12 -61 -21 -76 -21 -26 0 -28 2 -17 19 6 10 25 27 42 36 142 82 167 115
210 278 31 119 34 186 9 189 -39 3 -82 -4 -173 -28 -142 -39 -184 -63 -230
-137 -21 -34 -51 -77 -66 -95 -23 -28 -29 -31 -36 -18 -6 10 0 37 18 78 20 49
25 72 20 107 -12 89 -76 190 -134 212 -32 12 -92 11 -92 -1z"/>
<path d="M8844 4690 c-58 -23 -121 -124 -131 -210 -4 -35 0 -59 16 -95 22 -50
28 -95 12 -95 -12 0 -42 38 -90 115 -45 73 -94 102 -231 138 -175 46 -195 44
-193 -17 2 -55 52 -236 81 -289 18 -34 42 -59 86 -87 81 -52 116 -80 116 -91
0 -16 -45 -10 -95 12 -58 26 -118 22 -189 -12 -84 -39 -126 -95 -126 -165 0
-38 8 -41 52 -18 47 24 99 12 192 -44 167 -102 218 -91 302 67 35 65 177 210
242 247 175 99 186 138 80 311 -56 92 -68 144 -44 191 9 17 16 36 16 42 0 12
-66 12 -96 0z"/>
<path d="M3570 4184 c-78 -31 -97 -46 -108 -83 -25 -82 -8 -131 46 -131 15 1
38 7 52 15 72 41 167 0 296 -129 129 -129 170 -224 129 -296 -46 -81 12 -130
116 -98 83 24 111 175 57 304 -70 169 -248 344 -405 398 -51 18 -158 29 -183
20z"/>
<path d="M9080 4175 c-196 -55 -405 -268 -456 -465 -19 -75 -15 -131 15 -193
17 -35 29 -46 60 -55 104 -32 162 17 116 98 -41 72 0 167 129 296 129 129 224
170 296 129 81 -46 130 12 98 116 -9 31 -20 43 -54 60 -57 27 -136 33 -204 14z"/>
<path d="M1892 4100 c-93 -22 -122 -137 -47 -186 21 -13 31 -15 50 -6 21 10
25 18 25 56 0 25 4 48 10 51 5 3 25 -1 44 -10 35 -17 56 -50 56 -88 -1 -34
-41 -124 -96 -212 -88 -141 -124 -252 -124 -385 0 -152 46 -259 159 -370 131
-129 259 -178 487 -187 134 -5 209 3 323 34 22 6 23 4 17 -23 -41 -161 -49
-333 -21 -469 62 -298 277 -495 540 -495 137 1 259 41 404 132 137 86 217 107
260 67 25 -24 44 -66 35 -80 -3 -5 -25 -9 -50 -9 -38 0 -46 -4 -56 -25 -22
-49 42 -103 108 -91 100 19 121 179 35 265 -59 59 -156 77 -257 46 -67 -20
-74 -19 -74 11 0 49 -23 105 -63 150 -50 57 -84 74 -146 74 -39 0 -56 -6 -81
-26 -63 -54 -81 -141 -37 -182 49 -46 104 -13 94 58 -5 37 -3 42 19 50 66 26
127 -56 104 -141 -23 -84 -171 -179 -279 -179 -154 0 -339 125 -424 288 -65
124 -85 235 -67 377 20 163 76 308 146 378 20 20 34 40 30 45 -4 4 -15 -2 -24
-13 -105 -127 -453 -208 -647 -151 -187 55 -344 200 -395 365 -39 125 -16 230
71 326 58 62 102 80 160 65 46 -13 72 -42 71 -80 -1 -43 -8 -49 -52 -43 -71
10 -106 -49 -57 -95 48 -45 145 -19 187 50 24 39 26 107 5 147 -34 67 -136
131 -209 131 -30 0 -31 7 -11 74 28 91 17 178 -31 242 -39 53 -124 81 -192 64z"/>
<path d="M10806 4098 c-21 -6 -55 -27 -75 -47 -59 -59 -77 -156 -46 -257 20
-67 19 -74 -12 -74 -52 0 -100 -20 -147 -61 -57 -51 -76 -85 -76 -141 0 -110
126 -188 204 -127 54 43 19 106 -54 96 -37 -5 -42 -3 -50 19 -26 66 56 127
141 104 51 -14 131 -103 159 -178 81 -213 -111 -493 -396 -578 -76 -23 -242
-23 -339 0 -141 33 -258 90 -306 150 -10 12 -21 18 -25 14 -4 -5 10 -25 30
-45 117 -117 186 -446 132 -628 -69 -232 -279 -415 -477 -415 -108 0 -256 95
-279 179 -23 85 38 167 104 141 22 -8 24 -13 19 -50 -10 -73 53 -108 96 -54
39 50 22 126 -39 178 -44 36 -120 37 -175 0 -65 -42 -115 -127 -115 -195 0
-33 -6 -34 -74 -14 -101 31 -198 13 -257 -46 -86 -86 -65 -246 35 -265 66 -12
130 42 108 91 -10 21 -18 25 -56 25 -51 0 -60 8 -47 43 14 37 51 67 83 67 41
0 119 -32 202 -84 155 -97 272 -135 411 -136 265 0 480 199 541 503 20 100 14
331 -11 421 -9 32 -14 60 -12 63 3 2 31 -3 63 -12 92 -26 321 -31 425 -10 300
60 499 276 499 540 -1 139 -39 256 -136 411 -52 83 -84 161 -84 202 0 32 30
69 67 83 35 13 43 4 43 -47 0 -38 4 -46 25 -56 55 -25 114 65 84 127 -29 58
-104 84 -183 63z"/>
<path d="M3694 3782 c-33 -27 -77 -60 -99 -74 -22 -14 -47 -33 -55 -43 -8 -10
-42 -36 -74 -57 -134 -86 -276 -100 -481 -47 -133 35 -240 42 -292 20 -41 -17
-43 -42 -7 -94 14 -21 24 -40 22 -42 -2 -2 -43 0 -90 5 -153 16 -261 -13 -337
-89 -69 -69 -101 -157 -87 -236 9 -47 74 -115 110 -115 l27 0 -7 73 c-6 68 -5
74 19 100 38 40 80 36 190 -18 90 -45 91 -46 89 -80 -14 -155 238 -134 466 39
112 85 118 78 32 -40 -68 -94 -102 -161 -125 -249 -36 -139 -1 -221 90 -213
34 2 35 1 80 -89 60 -122 59 -169 -4 -202 -16 -9 -43 -11 -87 -6 l-64 7 0 -28
c0 -36 67 -101 115 -110 108 -20 248 62 297 174 28 62 37 149 26 251 -4 46 -6
86 -4 89 3 2 22 -8 43 -22 52 -36 77 -34 94 7 23 52 15 159 -20 291 -54 203
-39 349 47 482 22 32 49 68 62 79 12 11 31 36 41 55 11 19 42 62 70 95 42 51
49 66 47 95 -3 32 -6 35 -39 38 -31 3 -45 -4 -95 -46z"/>
<path d="M8977 3823 c-4 -3 -7 -20 -7 -38 0 -23 13 -47 50 -90 27 -33 58 -76
69 -95 10 -19 29 -44 41 -55 13 -11 40 -47 62 -79 86 -133 100 -276 47 -481
-35 -133 -42 -240 -20 -292 17 -41 42 -43 94 -7 21 14 40 24 42 22 2 -2 0 -43
-5 -90 -16 -157 13 -263 95 -342 50 -49 133 -86 191 -86 71 0 154 63 154 117
0 24 -1 25 -64 18 -48 -5 -70 -3 -93 9 -58 30 -58 82 3 201 44 88 46 89 79 86
154 -13 133 241 -39 468 -84 111 -76 119 35 35 227 -172 481 -193 468 -39 -3
33 -2 35 86 79 119 61 171 61 201 3 12 -23 14 -45 9 -93 -7 -63 -6 -64 18 -64
54 0 117 83 117 154 0 58 -37 141 -86 191 -79 82 -185 111 -342 95 -47 -5 -88
-8 -90 -6 -2 2 8 22 22 45 35 55 33 75 -6 92 -53 22 -160 15 -293 -20 -205
-53 -348 -39 -481 47 -32 22 -68 49 -79 61 -11 13 -33 30 -49 38 -16 8 -58 39
-93 69 -49 42 -71 54 -96 54 -19 0 -37 -3 -40 -7z"/>
<path d="M6368 3783 c-31 -33 -102 -148 -134 -218 -28 -59 -31 -127 -9 -199
19 -62 20 -116 2 -116 -14 0 -25 19 -48 78 -47 126 -262 189 -349 102 -29 -29
-26 -35 24 -54 57 -22 71 -44 102 -164 31 -114 44 -143 80 -171 33 -26 77 -26
173 -1 54 15 107 20 191 20 84 0 137 -5 191 -20 101 -27 141 -26 177 5 34 28
54 74 72 160 21 101 47 145 99 168 57 25 55 22 42 45 -29 54 -151 69 -236 28
-73 -36 -92 -54 -128 -126 -18 -35 -38 -65 -44 -68 -18 -5 -17 53 2 114 22 72
19 140 -9 199 -48 104 -144 245 -166 245 -3 0 -18 -12 -32 -27z"/>
<path d="M4643 3719 c-41 -26 -77 -99 -70 -142 4 -20 -1 -47 -13 -72 -11 -22
-21 -48 -24 -58 -6 -21 -5 -20 -121 -42 -111 -20 -171 -52 -240 -127 -79 -85
-99 -144 -100 -289 0 -113 1 -116 37 -190 44 -89 121 -170 198 -209 30 -15 98
-40 150 -55 110 -31 155 -55 175 -95 20 -38 19 -53 -5 -75 -16 -14 -24 -15
-51 -6 -59 20 -67 -13 -15 -65 28 -28 41 -34 78 -34 33 0 50 -6 64 -21 32 -36
80 -52 120 -39 42 14 43 35 3 55 -25 14 -30 21 -27 48 2 24 10 35 32 46 41 19
104 3 208 -55 117 -65 177 -84 267 -84 139 0 243 44 335 140 113 118 150 262
106 413 -6 20 -38 77 -71 126 l-60 89 20 33 c12 19 21 44 21 55 0 12 11 29 25
38 71 46 85 166 25 219 -17 15 -37 26 -43 24 -7 -2 -13 -27 -15 -56 -3 -50 -5
-53 -40 -69 -47 -21 -190 -20 -322 2 -52 9 -118 16 -146 16 -39 0 -55 5 -70
21 -10 12 -69 58 -129 104 -134 100 -197 160 -224 213 -28 55 -27 60 16 100
36 33 37 34 18 48 -27 20 -75 17 -112 -7z m173 -484 c42 -21 100 -61 142 -100
l70 -65 79 0 c185 0 338 -81 403 -213 35 -72 48 -162 31 -224 -10 -35 -18 -45
-57 -63 -37 -18 -57 -22 -101 -17 -86 9 -130 48 -140 125 -4 32 -1 44 16 61
29 29 58 26 121 -13 30 -19 58 -32 62 -30 5 3 8 27 8 54 0 41 -5 55 -32 86
-54 61 -128 80 -189 49 -22 -12 -45 -14 -87 -10 -49 6 -61 4 -91 -17 -63 -43
-76 -70 -76 -162 l0 -83 -32 14 c-18 7 -47 13 -64 13 -21 0 -43 10 -65 30 -19
16 -46 33 -59 36 -30 7 -32 20 -5 29 30 9 89 84 101 127 15 56 -3 110 -50 150
-21 18 -50 57 -65 86 -21 42 -36 58 -69 73 -72 32 -155 18 -191 -32 -25 -37
-20 -47 32 -55 113 -16 146 -72 77 -133 -30 -26 -44 -31 -85 -31 -39 0 -56 6
-91 33 -49 38 -79 88 -79 135 0 25 10 44 45 81 115 122 277 147 441 66z m-342
-466 c64 -39 59 -49 -27 -49 -61 0 -113 16 -135 43 -11 13 -9 18 10 32 32 23
85 14 152 -26z m803 -327 c26 -14 43 -42 43 -71 0 -25 -25 -27 -73 -7 -31 13
-117 97 -117 115 0 10 113 -19 147 -37z"/>
<path d="M8044 3725 c-18 -15 -18 -16 19 -48 43 -37 44 -44 18 -95 -27 -53
-87 -111 -221 -212 -63 -48 -124 -97 -134 -109 -15 -17 -31 -21 -75 -21 -31 0
-96 -7 -146 -16 -125 -22 -269 -23 -317 -2 -37 16 -38 19 -38 67 0 56 -8 66
-43 50 -76 -35 -74 -174 5 -232 15 -11 28 -30 28 -41 0 -12 9 -36 20 -54 l20
-33 -60 -90 c-74 -111 -95 -176 -87 -276 7 -97 48 -185 122 -262 92 -97 196
-141 333 -141 88 0 157 22 267 83 91 51 152 71 192 61 40 -10 53 -23 53 -55 0
-22 -7 -32 -30 -44 -40 -20 -38 -41 4 -55 40 -13 88 3 120 39 14 15 31 21 64
21 37 0 50 6 78 34 52 52 44 85 -15 65 -27 -9 -35 -8 -51 6 -24 22 -25 48 -4
80 24 37 69 61 174 90 125 36 182 66 250 131 95 90 140 196 140 330 0 128 -43
228 -136 313 -61 55 -128 85 -231 101 -93 15 -103 19 -103 40 0 23 -20 70 -31
70 -4 0 -7 26 -6 58 2 66 -18 106 -67 140 -37 26 -84 28 -112 7z m201 -450
c93 -15 225 -124 225 -186 0 -81 -78 -160 -164 -167 -48 -4 -56 -1 -89 28 -71
62 -39 118 76 135 56 9 60 25 16 66 -74 69 -202 42 -246 -52 -12 -24 -39 -60
-61 -80 -51 -46 -69 -98 -52 -157 12 -46 69 -117 101 -127 26 -9 24 -22 -6
-29 -13 -3 -40 -20 -59 -36 -22 -20 -44 -30 -65 -30 -17 0 -46 -6 -64 -13
l-32 -14 0 83 c0 92 -13 119 -76 162 -30 21 -42 23 -91 17 -42 -4 -65 -2 -87
10 -95 49 -224 -30 -224 -137 0 -21 4 -43 9 -48 5 -5 32 6 64 26 59 37 86 42
116 20 24 -18 25 -93 0 -130 -40 -62 -138 -84 -218 -48 -57 25 -73 64 -65 157
16 205 195 345 440 345 l80 0 67 64 c101 95 258 163 345 150 11 -1 38 -6 60
-9z m233 -481 c19 -13 21 -18 10 -31 -22 -27 -74 -43 -135 -43 -88 0 -92 11
-20 53 67 40 110 46 145 21z m-808 -313 c0 -18 -86 -104 -117 -117 -51 -22
-73 -18 -73 11 0 35 39 71 91 85 24 7 55 16 69 20 14 5 26 9 28 9 1 1 2 -3 2
-8z"/>
<path d="M3827 3670 c-124 -108 -212 -511 -178 -809 19 -162 53 -282 116 -406
137 -274 361 -436 695 -502 69 -14 99 -26 155 -64 138 -91 284 -154 423 -180
91 -17 298 -6 392 21 174 50 371 173 525 327 173 175 317 417 332 559 7 67 -7
94 -50 94 -47 0 -76 -35 -140 -170 -101 -214 -253 -383 -419 -464 -119 -59
-204 -80 -281 -72 -111 11 -207 72 -207 130 -1 71 -46 72 -116 2 -59 -59 -67
-102 -29 -173 16 -29 26 -55 22 -59 -10 -10 -122 30 -186 68 -31 18 -96 73
-146 123 l-90 90 -60 -7 c-67 -8 -206 5 -276 26 -59 18 -149 64 -149 76 0 8
61 30 86 30 19 0 62 55 74 96 10 33 9 50 -2 90 -16 59 -35 66 -86 31 -33 -23
-42 -25 -84 -17 -110 21 -196 96 -258 223 -59 125 -74 191 -74 342 0 152 18
253 71 395 49 130 53 171 20 204 -33 33 -39 33 -80 -4z"/>
<path d="M8896 3679 c-37 -29 -34 -77 13 -202 22 -57 48 -144 57 -193 24 -121
24 -306 0 -399 -54 -209 -175 -352 -315 -374 -45 -7 -55 -5 -86 16 -47 32 -67
27 -83 -22 -28 -84 18 -185 91 -200 82 -17 86 -25 25 -56 -113 -58 -262 -85
-383 -70 -65 7 -71 7 -84 -13 -28 -43 -159 -162 -213 -194 -62 -37 -175 -79
-185 -69 -3 4 6 32 21 62 37 72 31 113 -28 171 -70 70 -115 69 -116 -2 0 -58
-96 -119 -207 -130 -98 -10 -258 43 -380 128 -120 82 -266 272 -337 438 -43
101 -77 140 -121 140 -41 0 -55 -16 -55 -65 0 -64 24 -137 79 -241 171 -325
475 -587 786 -676 68 -19 103 -23 235 -23 132 0 167 3 235 23 103 30 227 88
329 155 64 43 95 56 149 66 283 50 511 190 654 401 176 260 228 658 133 1025
-37 145 -77 232 -129 284 -22 22 -45 41 -50 41 -4 0 -20 -9 -35 -21z"/>
<path d="M6310 3000 c-133 -16 -267 -74 -321 -139 -41 -50 -64 -123 -48 -153
29 -57 60 -88 88 -88 33 0 47 14 81 84 35 71 80 88 256 94 205 7 293 -19 327
-97 26 -62 45 -81 78 -81 28 0 59 31 88 88 18 34 -11 111 -59 161 -95 98 -303
153 -490 131z"/>
<path d="M6371 2741 c-24 -24 -35 -78 -61 -316 -10 -98 -38 -178 -85 -250 -50
-75 -110 -125 -245 -205 -118 -70 -175 -120 -205 -178 -15 -32 -15 -35 0 -52
10 -11 37 -22 61 -26 24 -3 44 -9 44 -13 0 -4 -22 -24 -49 -44 -75 -57 -140
-132 -168 -193 -57 -125 -13 -307 87 -359 43 -22 133 -20 154 4 17 19 16 21
-32 56 -55 39 -62 50 -62 101 0 52 32 77 144 113 l97 31 26 -31 c24 -29 31
-31 72 -26 39 4 53 12 87 50 74 82 116 191 145 375 14 94 26 83 45 -38 18
-121 46 -205 93 -277 53 -81 82 -104 134 -110 39 -5 46 -2 70 26 l26 31 97
-31 c112 -36 144 -61 144 -113 0 -51 -7 -62 -62 -101 -48 -35 -49 -37 -32 -56
21 -24 111 -26 154 -4 82 43 131 185 105 306 -17 80 -88 173 -187 245 -26 20
-48 39 -48 44 0 4 20 11 44 14 24 4 51 15 61 26 15 17 15 20 0 52 -30 58 -87
108 -205 178 -63 37 -136 86 -162 109 -94 83 -153 203 -168 341 -9 81 -27 215
-36 268 -5 33 -35 72 -54 72 -5 0 -19 -9 -29 -19z"/>
<path d="M2635 2663 c-42 -23 -169 -27 -292 -10 -110 16 -152 12 -244 -22 -92
-35 -173 -120 -156 -165 15 -38 58 -51 184 -56 68 -3 124 -9 126 -15 3 -14
-61 -54 -107 -65 -140 -36 -194 -81 -225 -188 -20 -65 -46 -250 -37 -259 11
-12 246 30 296 53 90 41 107 65 150 209 23 80 56 128 71 104 5 -7 8 -62 8
-121 -1 -88 2 -113 17 -139 30 -51 48 -57 91 -34 52 28 96 90 123 174 19 61
22 83 16 154 -20 254 -20 291 3 342 11 26 21 49 21 51 0 8 -15 3 -45 -13z"/>
<path d="M10125 2664 c28 -67 34 -97 34 -164 0 -41 -6 -115 -13 -165 -14 -99
-5 -174 32 -258 36 -81 116 -149 156 -134 38 15 51 58 56 186 3 78 9 126 16
128 14 5 60 -86 80 -159 8 -31 25 -71 37 -90 43 -64 150 -103 335 -122 l63 -7
-7 63 c-19 185 -58 292 -122 335 -19 12 -59 29 -90 37 -73 20 -164 66 -159 80
2 7 50 13 128 16 68 3 133 10 145 17 52 30 55 67 8 122 -37 45 -99 78 -186
100 -70 18 -82 18 -174 5 -164 -23 -233 -18 -328 21 -16 7 -18 5 -11 -11z"/>
<path d="M4930 1665 c-119 -54 -148 -185 -53 -234 48 -25 103 -4 103 40 0 10
-13 31 -30 46 -16 14 -30 30 -30 34 0 4 18 14 40 23 45 18 73 11 106 -25 34
-38 43 -61 78 -202 37 -146 70 -219 139 -314 215 -291 627 -277 932 31 59 60
157 189 179 238 5 10 7 10 12 1 25 -54 119 -180 178 -239 311 -309 712 -323
931 -32 71 94 103 166 140 313 35 142 45 166 79 204 33 36 61 43 106 25 22 -9
40 -19 40 -23 0 -4 -13 -20 -30 -34 -67 -60 -4 -126 79 -83 53 28 66 100 28
157 -88 131 -258 112 -356 -41 -22 -34 -41 -66 -43 -72 -2 -6 -22 2 -47 20
-111 80 -264 62 -316 -39 -54 -103 60 -254 135 -179 28 28 25 48 -15 86 -41
39 -42 44 -12 72 46 44 129 16 162 -54 40 -86 -10 -267 -93 -332 -86 -68 -192
-102 -317 -102 -104 0 -191 21 -279 68 -180 94 -351 344 -364 530 -5 84 -22
97 -22 18 0 -177 -185 -453 -366 -548 -101 -53 -186 -71 -309 -65 -201 9 -334
96 -379 247 -20 67 -21 140 -2 185 31 72 129 97 169 43 l20 -27 -37 -34 c-41
-39 -45 -58 -16 -87 74 -74 189 76 136 178 -53 101 -202 121 -316 41 -28 -20
-46 -27 -48 -20 -2 7 -23 40 -46 74 -70 105 -179 151 -266 112z"/>
<path d="M6365 1067 c-25 -51 -44 -73 -110 -125 -148 -117 -173 -141 -203
-194 -62 -108 -76 -217 -34 -268 15 -18 24 -21 56 -15 30 6 59 27 127 91 48
46 93 84 100 84 21 0 -1 -71 -47 -156 -56 -102 -59 -158 -15 -249 28 -60 146
-220 161 -220 15 0 133 160 161 220 44 91 41 146 -15 248 -47 87 -68 157 -46
157 7 0 49 -36 94 -80 58 -57 92 -84 120 -91 50 -13 64 -7 83 38 20 50 6 133
-39 222 -33 65 -59 91 -213 213 -65 51 -85 75 -110 125 -16 34 -32 62 -35 62
-3 0 -18 -27 -35 -62z"/>
</g>
</svg>
